<?xml version="1.0" standalone="no"?>
<!DOCTYPE svg PUBLIC "-//W3C//DTD SVG 20010904//EN"
 "http://www.w3.org/TR/2001/REC-SVG-20010904/DTD/svg10.dtd">
<svg version="1.0" xmlns="http://www.w3.org/2000/svg"
 width="500.000000pt" height="500.000000pt" viewBox="0 0 500.000000 500.000000"
 preserveAspectRatio="xMidYMid meet">

<g transform="translate(0.000000,500.000000) scale(0.100000,-0.100000)"
fill="#000000" stroke="none">
<path d="M2115 3574 c-121 -11 -314 -30 -740 -69 -93 -9 -179 -18 -190 -20
-17 -4 -136 -131 -217 -233 l-28 -35 0 -458 0 -458 -57 -3 -58 -3 0 -40 0 -40
405 1 c223 0 434 1 470 2 36 1 127 0 203 -3 l137 -6 0 205 0 206 -39 0 -38 0
-7 -52 c-3 -29 -6 -102 -6 -161 l0 -108 -27 3 -28 3 0 205 0 205 310 0 310 0
3 -207 2 -208 -30 0 -29 0 -3 158 -3 157 -42 3 -43 3 0 -205 0 -206 199 0 198
0 37 29 c21 17 54 36 74 43 34 12 23 13 -128 18 l-165 5 -3 224 c-1 145 -6
229 -13 238 -17 19 -711 19 -728 0 -7 -9 -12 -93 -13 -238 l-3 -224 -315 0
-315 0 -3 553 -2 552 22 9 c13 4 154 20 313 35 160 15 378 35 485 46 107 11
222 20 255 20 33 0 184 -24 335 -54 151 -29 319 -62 372 -71 54 -10 101 -21
106 -24 4 -3 22 -25 40 -47 l32 -42 0 -424 0 -424 29 -22 c16 -11 31 -18 35
-15 3 4 6 199 6 434 0 281 3 428 10 431 6 2 72 -2 148 -9 75 -6 149 -12 165
-12 l27 -1 0 -470 0 -470 -160 0 c-153 0 -160 -1 -160 -20 0 -12 15 -29 40
-45 l40 -25 228 2 227 3 0 40 0 40 -72 3 -73 3 0 463 c0 400 2 465 15 476 16
13 20 47 7 67 -5 8 -94 20 -247 34 l-240 21 -30 35 -30 34 -410 79 c-225 44
-421 79 -435 78 -14 0 -83 -6 -155 -14z m-1025 -502 c0 -64 -2 -70 -25 -80
l-25 -12 0 68 c0 67 10 92 37 92 9 0 13 -19 13 -68z"/>
<path d="M1320 3155 l0 -96 83 3 82 3 3 93 3 92 -86 0 -85 0 0 -95z"/>
<path d="M1590 3155 l0 -95 80 0 80 0 0 95 0 95 -80 0 -80 0 0 -95z"/>
<path d="M1854 3237 c-3 -8 -4 -49 -2 -93 l3 -79 83 -3 82 -3 0 96 0 95 -80 0
c-58 0 -82 -4 -86 -13z"/>
<path d="M2120 3155 l0 -95 85 0 85 0 0 95 0 95 -85 0 -85 0 0 -95z"/>
<path d="M2390 3155 l0 -95 85 0 85 0 0 95 0 95 -85 0 -85 0 0 -95z"/>
<path d="M2660 3155 l0 -96 83 3 82 3 0 90 0 90 -82 3 -83 3 0 -96z"/>
<path d="M2926 3234 c-11 -30 -7 -161 7 -171 10 -9 94 -33 111 -33 3 0 6 44 6
99 l0 99 -44 11 c-60 15 -73 14 -80 -5z"/>
<path d="M3327 3114 c-4 -4 -7 -41 -7 -81 l0 -74 73 3 72 3 0 75 0 75 -65 3
c-36 2 -69 0 -73 -4z"/>
<path d="M2178 2909 c-34 -19 -12 -89 28 -89 15 0 54 35 54 48 0 4 -7 18 -16
30 -16 24 -39 27 -66 11z"/>
<path d="M3327 2844 c-4 -4 -7 -41 -7 -81 l0 -74 73 3 72 3 0 75 0 75 -65 3
c-36 2 -69 0 -73 -4z"/>
<path d="M1324 2807 c-2 -7 -4 -52 -2 -98 l3 -84 80 0 80 0 0 95 0 95 -78 3
c-58 2 -79 -1 -83 -11z"/>
<path d="M1594 2807 c-2 -7 -4 -52 -2 -98 l3 -84 78 -3 78 -3 -3 98 -3 98 -73
3 c-54 2 -74 -1 -78 -11z"/>
<path d="M2664 2807 c-3 -8 -4 -52 -2 -98 l3 -84 68 -3 c42 -2 74 2 83 9 18
15 20 159 2 177 -17 17 -147 16 -154 -1z"/>
<path d="M2926 2805 c-8 -21 -8 -148 0 -169 5 -12 21 -16 65 -16 l59 0 0 89
c0 99 4 93 -76 106 -33 5 -43 3 -48 -10z"/>
<path d="M2110 2476 c0 -78 -3 -171 -6 -205 l-7 -61 107 0 106 0 0 205 0 205
-100 0 -100 0 0 -144z"/>
<path d="M3327 2574 c-4 -4 -7 -41 -7 -81 l0 -74 73 3 72 3 0 75 0 75 -65 3
c-36 2 -69 0 -73 -4z"/>
<path d="M3012 2387 c-26 -12 -62 -74 -62 -106 0 -15 -11 -23 -42 -33 l-43
-12 77 -7 c87 -9 141 -32 193 -84 68 -68 95 -152 95 -297 0 -53 4 -99 9 -102
5 -3 32 1 60 10 49 14 71 13 71 -6 0 -4 -24 -14 -52 -20 -93 -22 -87 -9 -90
-198 -2 -92 -7 -175 -12 -184 -10 -23 0 -23 71 -2 30 9 69 28 86 42 18 15 49
36 71 47 80 40 111 115 109 255 -2 114 -30 229 -76 314 -27 51 -41 65 -82 85
-29 14 -61 40 -77 62 -15 21 -45 48 -67 61 -38 21 -41 26 -41 67 0 37 -6 49
-39 82 -35 35 -44 39 -87 38 -27 0 -59 -5 -72 -12z m104 -46 c31 -19 53 -67
37 -81 -4 -4 -41 -3 -81 3 -66 10 -72 12 -66 31 9 29 24 47 49 56 28 12 26 12
61 -9z m308 -412 c61 -152 63 -358 3 -407 -12 -10 -15 17 -21 186 -4 108 -9
212 -12 230 -9 46 11 40 30 -9z"/>
<path d="M1650 2180 c-36 -10 -150 -41 -255 -69 -166 -44 -194 -55 -217 -81
-42 -45 -37 -87 21 -211 72 -154 123 -262 179 -378 47 -99 50 -103 57 -73 3
17 22 45 41 62 l35 30 -85 177 c-46 98 -107 226 -135 285 -55 116 -56 118 -41
118 6 0 10 -4 10 -9 0 -5 44 -100 99 -212 54 -112 114 -238 134 -281 l36 -76
42 9 c23 5 49 14 58 18 9 5 50 18 91 30 41 11 127 36 190 55 63 19 117 33 119
30 7 -7 0 -10 -129 -48 -69 -21 -143 -44 -165 -51 -22 -7 -86 -27 -143 -45
-90 -27 -105 -35 -122 -63 -27 -43 -26 -101 1 -128 18 -18 29 -20 70 -15 29 4
49 3 49 -3 0 -5 5 -22 11 -38 l11 -28 19 24 c15 19 25 22 50 17 23 -4 30 -2
27 7 -3 6 -15 44 -28 82 -13 39 -25 71 -26 73 -1 2 -27 -4 -59 -13 -53 -16
-55 -18 -41 -34 25 -28 19 -49 -14 -56 -41 -9 -60 8 -60 53 0 63 14 70 310
157 69 20 142 43 163 51 20 8 39 14 41 14 2 0 6 -19 9 -42 2 -24 8 -52 11 -63
6 -18 -8 -25 -159 -73 -152 -49 -179 -62 -157 -76 10 -6 341 99 355 113 6 6 1
22 -14 42 -24 34 -30 92 -10 112 16 16 13 52 -7 89 -11 18 -72 139 -137 268
-110 217 -143 271 -162 269 -5 0 -37 -9 -73 -19z"/>
<path d="M2272 2035 c-24 -7 -61 -26 -83 -41 -38 -26 -40 -26 -59 -9 -19 17
-20 17 -28 -6 -12 -33 -23 -157 -14 -163 8 -5 151 29 160 38 3 3 -1 18 -9 32
-12 23 -11 28 6 41 81 62 180 72 270 28 31 -15 58 -25 61 -22 11 11 -76 79
-124 97 -61 23 -118 25 -180 5z"/>
<path d="M2478 1713 c-54 -14 -73 -33 -48 -48 21 -13 8 -35 -37 -62 -42 -24
-58 -28 -128 -28 -65 0 -87 4 -118 23 -45 26 -47 26 -47 7 0 -8 21 -30 46 -49
53 -41 134 -61 202 -51 51 8 125 39 143 61 15 18 33 18 49 -1 21 -25 30 -4 37
83 6 82 6 82 -18 81 -13 -1 -50 -8 -81 -16z"/>
</g>
</svg>
